<svg width="968" height="163" viewBox="0 0 968 163" fill="none" xmlns="http://www.w3.org/2000/svg">
<path fill-rule="evenodd" clip-rule="evenodd" d="M419.126 5.58191L430.344 33.1226C432.197 37.6695 437.674 39.4563 441.835 36.871L467.036 21.2103C473.846 16.9781 482.34 23.1733 480.435 30.9839L473.387 59.885C472.223 64.6566 475.608 69.3346 480.488 69.6979L510.045 71.8992C518.033 72.4942 521.277 82.5181 515.164 87.713L492.541 106.935C489.099 109.859 488.829 114.999 491.73 118.271C483.853 116.223 476.884 113.111 470.561 109.876C468.936 78.2204 442.772 52.9686 410.844 52.9686C377.872 52.9686 351.048 79.8984 351.048 113C351.048 118.979 351.923 124.756 353.551 130.21C340.498 141.872 331.209 137.259 321.441 132.409C319.757 131.573 318.058 130.729 316.324 129.961L329.148 119.065C332.883 115.891 332.883 110.109 329.148 106.935L306.524 87.713C300.41 82.5181 303.655 72.4942 311.643 71.8992L341.2 69.6979C346.08 69.3346 349.465 64.6566 348.301 59.885L341.253 30.9839C339.349 23.1733 347.842 16.9781 354.652 21.2103L379.853 36.871C384.014 39.4567 389.492 37.6699 391.344 33.1226L402.563 5.58191C405.595 -1.86064 416.094 -1.86064 419.126 5.58191Z" fill="#F2994A"/>
<path fill-rule="evenodd" clip-rule="evenodd" d="M410.844 67.0938C432.169 67.0938 450.13 81.8238 455.165 101.681C440.624 94.3437 429.077 92.1378 415.344 113.5C409.371 122.792 404.648 119.953 398.512 116.264C391.117 111.819 381.668 106.139 365.502 118.963C365.248 117.011 365.118 115.02 365.118 113C365.118 87.6871 385.63 67.0938 410.844 67.0938Z" fill="#EB5757"/>
<path fill-rule="evenodd" clip-rule="evenodd" d="M141.428 129H160.724V74.8562L162.596 74.2802C166.34 73.1282 170.084 72.5522 173.828 72.5522C178.148 72.5522 181.028 74.0402 182.468 77.0162C183.908 79.8962 184.628 84.3602 184.628 90.4082V129H203.924V89.9762C203.924 78.1682 202.1 69.4322 198.452 63.7682C194.804 58.1042 188.18 55.2722 178.58 55.2722C173.3 55.2722 167.348 57.0002 160.724 60.4562V28.2002H141.428V129ZM0 129V31.0802H63.36V48.3602H19.872V71.2562H54.72V88.2482H19.872V111.72H63.36V129H0ZM104.091 55.2722C109.083 55.2722 115.467 56.0402 123.243 57.5762L127.131 58.4402L126.555 73.7042C118.971 72.9362 113.355 72.5522 109.707 72.5522C103.083 72.5522 98.6666 73.9922 96.4586 76.8722C94.3466 79.6562 93.2906 84.9842 93.2906 92.8562C93.2906 100.728 94.3466 106.152 96.4586 109.128C98.6666 112.008 103.131 113.448 109.851 113.448L126.555 112.296L127.131 127.704C116.859 129.72 109.035 130.728 103.659 130.728C93.0026 130.728 85.3226 127.752 80.6186 121.8C76.0106 115.752 73.7066 106.104 73.7066 92.8562C73.7066 79.6082 76.1066 70.0562 80.9066 64.2002C85.7066 58.2482 93.4346 55.2722 104.091 55.2722ZM260.91 73.4162H243.198V102.936C243.198 105.816 243.246 107.88 243.342 109.128C243.534 110.28 244.062 111.288 244.926 112.152C245.886 113.016 247.326 113.448 249.246 113.448L260.19 113.16L261.054 128.568C254.622 130.008 249.726 130.728 246.366 130.728C237.726 130.728 231.822 128.808 228.654 124.968C225.486 121.032 223.902 113.832 223.902 103.368V73.4162H215.406V57.0002H223.902V36.9842H243.198V57.0002H260.91V73.4162Z" fill="#F2994A"/>
<path fill-rule="evenodd" clip-rule="evenodd" d="M577.009 57.0002C577.009 50.0882 582.241 46.6322 592.705 46.6322C598.273 46.6322 607.825 47.4002 621.361 48.9362L622.945 33.2402L617.761 32.2322C606.817 30.3122 597.793 29.3522 590.689 29.3522C580.321 29.3522 572.161 31.7522 566.209 36.5522C560.257 41.3522 557.281 48.6482 557.281 58.4402C557.281 66.2162 559.537 72.3122 564.049 76.7282C568.657 81.0482 576.529 84.7922 587.665 87.9602C594.673 89.9762 599.329 91.8482 601.633 93.5762C604.033 95.3042 605.233 97.7042 605.233 100.776C605.233 109.224 600.145 113.448 589.969 113.448C583.153 113.448 573.313 112.584 560.449 110.856L558.433 126.264L563.617 127.272C574.465 129.576 583.633 130.728 591.121 130.728C601.201 130.728 609.361 128.088 615.601 122.808C621.841 117.528 624.961 109.752 624.961 99.4802C624.961 91.4162 623.041 85.4642 619.201 81.6242C615.361 77.6882 608.641 74.1842 599.041 71.1122C589.537 68.0402 583.489 65.6882 580.897 64.0562C578.305 62.4242 577.009 60.0722 577.009 57.0002ZM639.209 159.24V57.0002H658.361V60.8882C664.601 57.1442 670.073 55.2722 674.777 55.2722C684.473 55.2722 691.625 58.2002 696.233 64.0562C700.841 69.8162 703.145 79.6562 703.145 93.5762C703.145 107.496 700.601 117.192 695.513 122.664C690.425 128.04 682.073 130.728 670.457 130.728C667.289 130.728 663.881 130.44 660.233 129.864L658.505 129.576V159.24H639.209ZM671.033 72.5522C667.481 72.5522 663.881 73.2722 660.233 74.7122L658.505 75.4322V113.16C662.825 113.736 666.329 114.024 669.017 114.024C674.585 114.024 678.377 112.392 680.393 109.128C682.505 105.864 683.561 100.296 683.561 92.4242C683.561 79.1762 679.385 72.5522 671.033 72.5522ZM772.69 109.416V79.4642C772.69 71.0162 770.626 64.8722 766.497 61.0322C762.465 57.1922 755.794 55.2722 746.482 55.2722C737.266 55.2722 727.522 56.6642 717.25 59.4482L717.826 72.8402L744.898 71.6882C747.874 71.6882 750.034 72.2642 751.378 73.4162C752.721 74.4722 753.393 76.4882 753.393 79.4642V83.9282L737.985 85.0802C729.441 85.6562 723.105 87.5762 718.977 90.8402C714.849 94.0082 712.786 99.4322 712.786 107.112C712.786 122.856 720.225 130.728 735.105 130.728C742.305 130.728 749.361 129.048 756.273 125.688C759.249 127.704 762.177 129.048 765.057 129.72C768.033 130.392 771.969 130.728 776.865 130.728L777.442 116.184C775.618 115.8 774.417 115.176 773.841 114.312C773.265 113.352 772.882 111.72 772.69 109.416ZM732.226 107.112C732.226 101.832 734.913 98.9522 740.289 98.4722L753.393 97.3202V112.728L751.234 113.304C746.914 114.456 742.929 115.032 739.281 115.032C734.577 115.032 732.226 112.392 732.226 107.112ZM810.38 129H791.084V57.0002H810.236V61.0322C816.764 57.1922 822.764 55.2722 828.236 55.2722C837.836 55.2722 844.46 58.1042 848.108 63.7682C851.756 69.4322 853.58 78.1682 853.58 89.9762V129H834.284V90.5522C834.284 84.4082 833.564 79.8962 832.124 77.0162C830.684 74.0402 827.804 72.5522 823.484 72.5522C819.548 72.5522 815.756 73.2242 812.108 74.5682L810.38 75.1442V129ZM870.822 57.0002V125.544C870.822 129.768 870.438 132.984 869.67 135.192C868.902 137.496 867.654 139.464 865.926 141.096C864.198 142.728 861.174 144.984 856.854 147.864L864.486 162.12C874.758 156.936 881.574 151.992 884.934 147.288C888.39 142.68 890.118 135.48 890.118 125.688V57.0002H870.822ZM870.822 28.2002V47.7842H890.118V28.2002H870.822ZM923.784 101.208C923.88 105.624 925.032 108.84 927.24 110.856C929.544 112.776 932.808 113.736 937.032 113.736C945.96 113.736 953.928 113.448 960.936 112.872L964.968 112.44L965.256 126.696C954.216 129.384 944.232 130.728 935.304 130.728C924.456 130.728 916.584 127.848 911.688 122.088C906.792 116.328 904.344 106.968 904.344 94.0082C904.344 68.1842 914.952 55.2722 936.168 55.2722C957.096 55.2722 967.56 66.1202 967.56 87.8162L966.12 101.208H923.784ZM948.552 86.5202C948.552 80.7602 947.64 76.7762 945.816 74.5682C943.992 72.2642 940.776 71.1122 936.168 71.1122C931.656 71.1122 928.44 72.3122 926.52 74.7122C924.696 77.0162 923.736 80.9522 923.64 86.5202H948.552Z" fill="#EB5757"/>
</svg>
