<svg width="906" height="743" viewBox="0 0 906 743" fill="none" xmlns="http://www.w3.org/2000/svg">
<path fill-rule="evenodd" clip-rule="evenodd" d="M487.425 23.4992L534.655 139.442C542.453 158.584 565.513 166.106 583.029 155.222L689.12 89.2929C717.792 71.4758 753.55 97.5566 745.529 130.439L715.858 252.108C710.958 272.196 725.211 291.89 745.755 293.42L870.186 302.687C903.813 305.192 917.472 347.391 891.734 369.261L796.495 450.183C782.005 462.495 780.867 484.13 793.082 497.906C759.919 489.283 730.583 476.182 703.96 462.562C697.121 329.298 586.974 222.991 452.562 222.991C313.754 222.991 200.827 336.362 200.827 475.715C200.827 500.886 204.511 525.208 211.366 548.169C156.412 597.262 117.307 577.844 76.1856 557.425C69.0946 553.904 61.9437 550.354 54.6413 547.119L108.629 501.248C124.353 487.887 124.353 463.546 108.629 450.185L13.3877 369.261C-12.3522 347.391 1.30629 305.192 34.9351 302.687L159.366 293.42C179.91 291.89 194.163 272.196 189.264 252.108L159.592 130.439C151.574 97.5566 187.331 71.4758 216.001 89.2929L322.094 155.222C339.61 166.108 362.67 158.586 370.468 139.442L417.698 23.4992C430.463 -7.83305 474.661 -7.83305 487.425 23.4992Z" fill="#F2994A"/>
<path fill-rule="evenodd" clip-rule="evenodd" d="M452.562 282.457C542.335 282.457 617.952 344.468 639.145 428.065C577.932 397.176 529.32 387.889 471.506 477.821C446.358 516.941 426.477 504.99 400.642 489.459C369.511 470.744 329.734 446.831 261.675 500.82C260.609 492.601 260.059 484.222 260.059 475.716C260.059 369.152 346.415 282.457 452.562 282.457Z" fill="#EB5757"/>
<path d="M425.263 704V636H469.263V648H439.063V663.9H463.263V675.7H439.063V692H469.263V704H425.263ZM515.334 666.5C507.068 665.433 501.268 664.9 497.934 664.9C494.668 664.9 492.534 665.2 491.534 665.8C490.601 666.4 490.134 667.367 490.134 668.7C490.134 669.967 490.768 670.867 492.034 671.4C493.368 671.867 496.701 672.6 502.034 673.6C507.434 674.533 511.268 676.1 513.534 678.3C515.801 680.5 516.934 684.067 516.934 689C516.934 699.8 510.234 705.2 496.834 705.2C492.434 705.2 487.101 704.6 480.834 703.4L477.634 702.8L478.034 691.6C486.301 692.667 492.034 693.2 495.234 693.2C498.501 693.2 500.701 692.9 501.834 692.3C503.034 691.633 503.634 690.667 503.634 689.4C503.634 688.133 503.001 687.2 501.734 686.6C500.534 686 497.334 685.267 492.134 684.4C487.001 683.533 483.168 682.067 480.634 680C478.101 677.933 476.834 674.267 476.834 669C476.834 663.667 478.634 659.667 482.234 657C485.834 654.267 490.468 652.9 496.134 652.9C500.068 652.9 505.434 653.533 512.234 654.8L515.534 655.4L515.334 666.5ZM526.602 725V654H539.902V656.7C544.236 654.1 548.036 652.8 551.302 652.8C558.036 652.8 563.002 654.833 566.202 658.9C569.402 662.9 571.002 669.733 571.002 679.4C571.002 689.067 569.236 695.8 565.702 699.6C562.169 703.333 556.369 705.2 548.302 705.2C546.102 705.2 543.736 705 541.202 704.6L540.002 704.4V725H526.602ZM548.702 664.8C546.236 664.8 543.736 665.3 541.202 666.3L540.002 666.8V693C543.002 693.4 545.436 693.6 547.302 693.6C551.169 693.6 553.802 692.467 555.202 690.2C556.669 687.933 557.402 684.067 557.402 678.6C557.402 669.4 554.502 664.8 548.702 664.8ZM619.297 669.6V690.4C619.43 692 619.697 693.133 620.097 693.8C620.497 694.4 621.33 694.833 622.597 695.1L622.197 705.2C618.797 705.2 616.064 704.967 613.997 704.5C611.997 704.033 609.964 703.1 607.897 701.7C603.097 704.033 598.197 705.2 593.197 705.2C582.864 705.2 577.697 699.733 577.697 688.8C577.697 683.467 579.13 679.7 581.997 677.5C584.864 675.233 589.264 673.9 595.197 673.5L605.897 672.7V669.6C605.897 667.533 605.43 666.133 604.497 665.4C603.564 664.6 602.064 664.2 599.997 664.2L581.197 665L580.797 655.7C587.93 653.767 594.697 652.8 601.097 652.8C607.564 652.8 612.197 654.133 614.997 656.8C617.864 659.467 619.297 663.733 619.297 669.6ZM596.797 682.8C593.064 683.133 591.197 685.133 591.197 688.8C591.197 692.467 592.83 694.3 596.097 694.3C598.63 694.3 601.397 693.9 604.397 693.1L605.897 692.7V682L596.797 682.8ZM632.071 704V654H645.371V656.8L647.271 655.8C648.471 655.133 650.104 654.467 652.171 653.8C654.304 653.133 656.204 652.8 657.871 652.8C664.538 652.8 669.138 654.767 671.671 658.7C674.204 662.633 675.471 668.7 675.471 676.9C675.471 676.9 675.471 685.933 675.471 704H662.071V677.3C662.071 673.033 661.571 669.9 660.571 667.9C659.571 665.833 657.538 664.8 654.471 664.8C651.404 664.8 648.404 665.4 645.471 666.6V704H632.071ZM669.371 641.1C668.704 641.767 667.438 642.667 665.571 643.8C663.704 644.933 662.004 645.5 660.471 645.5C659.004 645.5 656.738 644.9 653.671 643.7C650.604 642.5 648.604 641.9 647.671 641.9C645.804 641.9 643.638 642.667 641.171 644.2L639.871 645L636.971 637.5C638.304 635.967 639.971 634.6 641.971 633.4C644.038 632.133 645.804 631.5 647.271 631.5C648.804 631.5 651.104 632.1 654.171 633.3C657.304 634.5 659.271 635.1 660.071 635.1C661.671 635.1 663.871 634.267 666.671 632.6L668.071 631.7L670.971 639.3C670.571 639.767 670.038 640.367 669.371 641.1ZM725.645 669.6V690.4C725.778 692 726.045 693.133 726.445 693.8C726.845 694.4 727.678 694.833 728.945 695.1L728.545 705.2C725.145 705.2 722.411 704.967 720.345 704.5C718.345 704.033 716.311 703.1 714.245 701.7C709.445 704.033 704.545 705.2 699.545 705.2C689.211 705.2 684.045 699.733 684.045 688.8C684.045 683.467 685.478 679.7 688.345 677.5C691.211 675.233 695.611 673.9 701.545 673.5L712.245 672.7V669.6C712.245 667.533 711.778 666.133 710.845 665.4C709.911 664.6 708.411 664.2 706.345 664.2L687.545 665L687.145 655.7C694.278 653.767 701.045 652.8 707.445 652.8C713.911 652.8 718.545 654.133 721.345 656.8C724.211 659.467 725.645 663.733 725.645 669.6ZM703.145 682.8C699.411 683.133 697.545 685.133 697.545 688.8C697.545 692.467 699.178 694.3 702.445 694.3C704.978 694.3 707.745 693.9 710.745 693.1L712.245 692.7V682L703.145 682.8ZM735.019 704V695.7H742.219V704H735.019ZM753.612 694.35C753.645 695.883 754.045 697 754.812 697.7C755.612 698.367 756.745 698.7 758.212 698.7C761.312 698.7 764.078 698.6 766.512 698.4L767.912 698.25L768.012 703.2C764.178 704.133 760.712 704.6 757.612 704.6C753.845 704.6 751.112 703.6 749.412 701.6C747.712 699.6 746.862 696.35 746.862 691.85C746.862 682.883 750.545 678.4 757.912 678.4C765.178 678.4 768.812 682.167 768.812 689.7L768.312 694.35H753.612ZM762.212 689.25C762.212 687.25 761.895 685.867 761.262 685.1C760.628 684.3 759.512 683.9 757.912 683.9C756.345 683.9 755.228 684.317 754.562 685.15C753.928 685.95 753.595 687.317 753.562 689.25H762.212ZM791.55 685.25C787.417 684.717 784.517 684.45 782.85 684.45C781.217 684.45 780.15 684.6 779.65 684.9C779.183 685.2 778.95 685.683 778.95 686.35C778.95 686.983 779.267 687.433 779.9 687.7C780.567 687.933 782.233 688.3 784.9 688.8C787.6 689.267 789.517 690.05 790.65 691.15C791.783 692.25 792.35 694.033 792.35 696.5C792.35 701.9 789 704.6 782.3 704.6C780.1 704.6 777.433 704.3 774.3 703.7L772.7 703.4L772.9 697.8C777.033 698.333 779.9 698.6 781.5 698.6C783.133 698.6 784.233 698.45 784.8 698.15C785.4 697.817 785.7 697.333 785.7 696.7C785.7 696.067 785.383 695.6 784.75 695.3C784.15 695 782.55 694.633 779.95 694.2C777.383 693.767 775.467 693.033 774.2 692C772.933 690.967 772.3 689.133 772.3 686.5C772.3 683.833 773.2 681.833 775 680.5C776.8 679.133 779.117 678.45 781.95 678.45C783.917 678.45 786.6 678.767 790 679.4L791.65 679.7L791.55 685.25Z" fill="#EB5757"/>
<path d="M286.7 617L302 549H328.2L343.5 617H329.7L327 604.7H303.2L300.5 617H286.7ZM312.7 560.4L305.8 592.7H324.4L317.5 560.4H312.7ZM380.856 567H394.256V617H380.956V614.2C376.156 616.867 371.99 618.2 368.456 618.2C361.523 618.2 356.856 616.3 354.456 612.5C352.056 608.633 350.856 602.2 350.856 593.2V567H364.256V593.4C364.256 598.333 364.656 601.7 365.456 603.5C366.256 605.3 368.19 606.2 371.256 606.2C374.19 606.2 376.956 605.733 379.556 604.8L380.856 604.4V567ZM434.33 578.4H422.03V598.9C422.03 600.9 422.063 602.333 422.13 603.2C422.263 604 422.63 604.7 423.23 605.3C423.896 605.9 424.896 606.2 426.23 606.2L433.83 606L434.43 616.7C429.963 617.7 426.563 618.2 424.23 618.2C418.23 618.2 414.13 616.867 411.93 614.2C409.73 611.467 408.63 606.467 408.63 599.2V578.4H402.73V567H408.63V553.1H422.03V567H434.33V578.4ZM454.055 597.7C454.122 600.767 454.922 603 456.455 604.4C458.055 605.733 460.322 606.4 463.255 606.4C469.455 606.4 474.989 606.2 479.855 605.8L482.655 605.5L482.855 615.4C475.189 617.267 468.255 618.2 462.055 618.2C454.522 618.2 449.055 616.2 445.655 612.2C442.255 608.2 440.555 601.7 440.555 592.7C440.555 574.767 447.922 565.8 462.655 565.8C477.189 565.8 484.455 573.333 484.455 588.4L483.455 597.7H454.055ZM471.255 587.5C471.255 583.5 470.622 580.733 469.355 579.2C468.089 577.6 465.855 576.8 462.655 576.8C459.522 576.8 457.289 577.633 455.955 579.3C454.689 580.9 454.022 583.633 453.955 587.5H471.255ZM447.355 551.9L472.555 541.7L476.555 553.2L450.355 560.6L447.355 551.9ZM507.432 617H494.032V567H507.332V569.8C511.865 567.133 516.032 565.8 519.832 565.8C526.499 565.8 531.099 567.767 533.632 571.7C536.165 575.633 537.432 581.7 537.432 589.9V617H524.032V590.3C524.032 586.033 523.532 582.9 522.532 580.9C521.532 578.833 519.532 577.8 516.532 577.8C513.799 577.8 511.165 578.267 508.632 579.2L507.432 579.6V617ZM577.005 578.4H564.705V598.9C564.705 600.9 564.739 602.333 564.805 603.2C564.939 604 565.305 604.7 565.905 605.3C566.572 605.9 567.572 606.2 568.905 606.2L576.505 606L577.105 616.7C572.639 617.7 569.239 618.2 566.905 618.2C560.905 618.2 556.805 616.867 554.605 614.2C552.405 611.467 551.305 606.467 551.305 599.2V578.4H545.405V567H551.305V553.1H564.705V567H577.005V578.4ZM585.731 617V567H599.131V617H585.731ZM585.731 560.6V547H599.131V560.6H585.731ZM630.213 565.8C633.679 565.8 638.113 566.333 643.513 567.4L646.213 568L645.813 578.6C640.546 578.067 636.646 577.8 634.113 577.8C629.513 577.8 626.446 578.8 624.913 580.8C623.446 582.733 622.713 586.433 622.713 591.9C622.713 597.367 623.446 601.133 624.913 603.2C626.446 605.2 629.546 606.2 634.213 606.2L645.813 605.4L646.213 616.1C639.079 617.5 633.646 618.2 629.913 618.2C622.513 618.2 617.179 616.133 613.913 612C610.713 607.8 609.113 601.1 609.113 591.9C609.113 582.7 610.779 576.067 614.113 572C617.446 567.867 622.813 565.8 630.213 565.8ZM694.441 582.6V603.4C694.575 605 694.841 606.133 695.241 606.8C695.641 607.4 696.475 607.833 697.741 608.1L697.341 618.2C693.941 618.2 691.208 617.967 689.141 617.5C687.141 617.033 685.108 616.1 683.041 614.7C678.241 617.033 673.341 618.2 668.341 618.2C658.008 618.2 652.841 612.733 652.841 601.8C652.841 596.467 654.275 592.7 657.141 590.5C660.008 588.233 664.408 586.9 670.341 586.5L681.041 585.7V582.6C681.041 580.533 680.575 579.133 679.641 578.4C678.708 577.6 677.208 577.2 675.141 577.2L656.341 578L655.941 568.7C663.075 566.767 669.841 565.8 676.241 565.8C682.708 565.8 687.341 567.133 690.141 569.8C693.008 572.467 694.441 576.733 694.441 582.6ZM671.941 595.8C668.208 596.133 666.341 598.133 666.341 601.8C666.341 605.467 667.975 607.3 671.241 607.3C673.775 607.3 676.541 606.9 679.541 606.1L681.041 605.7V595L671.941 595.8Z" fill="#F2994A"/>
</svg>
