<svg width="906" height="743" viewBox="0 0 906 743" fill="none" xmlns="http://www.w3.org/2000/svg">
<path fill-rule="evenodd" clip-rule="evenodd" d="M487.425 23.4992L534.655 139.442C542.453 158.584 565.513 166.106 583.029 155.222L689.12 89.2929C717.792 71.4758 753.55 97.5566 745.529 130.439L715.858 252.108C710.958 272.196 725.211 291.89 745.755 293.42L870.186 302.687C903.813 305.192 917.472 347.391 891.734 369.261L796.495 450.183C782.005 462.495 780.867 484.13 793.082 497.906C759.919 489.283 730.583 476.182 703.96 462.562C697.121 329.298 586.974 222.991 452.562 222.991C313.754 222.991 200.827 336.362 200.827 475.715C200.827 500.886 204.511 525.208 211.366 548.169C156.412 597.262 117.307 577.844 76.1856 557.425C69.0946 553.904 61.9437 550.354 54.6413 547.119L108.629 501.248C124.353 487.887 124.353 463.546 108.629 450.185L13.3877 369.261C-12.3522 347.391 1.30629 305.192 34.9351 302.687L159.366 293.42C179.91 291.89 194.163 272.196 189.263 252.108L159.592 130.439C151.574 97.5566 187.331 71.4758 216.001 89.2929L322.094 155.222C339.61 166.108 362.67 158.586 370.468 139.442L417.698 23.4992C430.463 -7.83305 474.661 -7.83305 487.425 23.4992Z" fill="#F2994A"/>
<path fill-rule="evenodd" clip-rule="evenodd" d="M452.562 282.457C542.335 282.457 617.952 344.468 639.145 428.065C577.932 397.176 529.32 387.889 471.506 477.821C446.358 516.941 426.477 504.99 400.642 489.459C369.511 470.744 329.734 446.831 261.675 500.82C260.609 492.601 260.059 484.222 260.059 475.716C260.059 369.152 346.415 282.457 452.562 282.457Z" fill="#EB5757"/>
<path d="M344.363 702.9C337.297 704.433 330.93 705.2 325.263 705.2C319.597 705.2 315.063 704.5 311.663 703.1C308.263 701.7 305.597 699.467 303.663 696.4C301.73 693.333 300.397 689.733 299.663 685.6C298.93 681.467 298.563 676.267 298.563 670C298.563 656.867 300.397 647.733 304.063 642.6C307.797 637.4 314.63 634.8 324.563 634.8C330.297 634.8 336.93 635.7 344.463 637.5L344.063 648.5C337.463 647.5 331.963 647 327.563 647C323.23 647 320.13 647.6 318.263 648.8C316.397 649.933 314.997 652.133 314.063 655.4C313.197 658.667 312.763 664.233 312.763 672.1C312.763 679.967 313.663 685.433 315.463 688.5C317.33 691.5 320.997 693 326.463 693C331.997 693 337.863 692.533 344.063 691.6L344.363 702.9ZM392.66 669.6V690.4C392.793 692 393.06 693.133 393.46 693.8C393.86 694.4 394.693 694.833 395.96 695.1L395.56 705.2C392.16 705.2 389.427 704.967 387.36 704.5C385.36 704.033 383.327 703.1 381.26 701.7C376.46 704.033 371.56 705.2 366.56 705.2C356.227 705.2 351.06 699.733 351.06 688.8C351.06 683.467 352.493 679.7 355.36 677.5C358.227 675.233 362.627 673.9 368.56 673.5L379.26 672.7V669.6C379.26 667.533 378.793 666.133 377.86 665.4C376.927 664.6 375.427 664.2 373.36 664.2L354.56 665L354.16 655.7C361.293 653.767 368.06 652.8 374.46 652.8C380.927 652.8 385.56 654.133 388.36 656.8C391.227 659.467 392.66 663.733 392.66 669.6ZM370.16 682.8C366.427 683.133 364.56 685.133 364.56 688.8C364.56 692.467 366.193 694.3 369.46 694.3C371.993 694.3 374.76 693.9 377.76 693.1L379.26 692.7V682L370.16 682.8ZM441.334 666.5C433.068 665.433 427.268 664.9 423.934 664.9C420.668 664.9 418.534 665.2 417.534 665.8C416.601 666.4 416.134 667.367 416.134 668.7C416.134 669.967 416.768 670.867 418.034 671.4C419.368 671.867 422.701 672.6 428.034 673.6C433.434 674.533 437.268 676.1 439.534 678.3C441.801 680.5 442.934 684.067 442.934 689C442.934 699.8 436.234 705.2 422.834 705.2C418.434 705.2 413.101 704.6 406.834 703.4L403.634 702.8L404.034 691.6C412.301 692.667 418.034 693.2 421.234 693.2C424.501 693.2 426.701 692.9 427.834 692.3C429.034 691.633 429.634 690.667 429.634 689.4C429.634 688.133 429.001 687.2 427.734 686.6C426.534 686 423.334 685.267 418.134 684.4C413.001 683.533 409.168 682.067 406.634 680C404.101 677.933 402.834 674.267 402.834 669C402.834 663.667 404.634 659.667 408.234 657C411.834 654.267 416.468 652.9 422.134 652.9C426.068 652.9 431.434 653.533 438.234 654.8L441.534 655.4L441.334 666.5ZM490.902 669.6V690.4C491.036 692 491.302 693.133 491.702 693.8C492.102 694.4 492.936 694.833 494.202 695.1L493.802 705.2C490.402 705.2 487.669 704.967 485.602 704.5C483.602 704.033 481.569 703.1 479.502 701.7C474.702 704.033 469.802 705.2 464.802 705.2C454.469 705.2 449.302 699.733 449.302 688.8C449.302 683.467 450.736 679.7 453.602 677.5C456.469 675.233 460.869 673.9 466.802 673.5L477.502 672.7V669.6C477.502 667.533 477.036 666.133 476.102 665.4C475.169 664.6 473.669 664.2 471.602 664.2L452.802 665L452.402 655.7C459.536 653.767 466.302 652.8 472.702 652.8C479.169 652.8 483.802 654.133 486.602 656.8C489.469 659.467 490.902 663.733 490.902 669.6ZM468.402 682.8C464.669 683.133 462.802 685.133 462.802 688.8C462.802 692.467 464.436 694.3 467.702 694.3C470.236 694.3 473.002 693.9 476.002 693.1L477.502 692.7V682L468.402 682.8ZM518.677 681.2V704H504.877V636H531.277C547.277 636 555.277 643.467 555.277 658.4C555.277 667.267 551.943 673.8 545.277 678L554.977 704H539.877L531.977 681.2H518.677ZM531.477 669.4C534.743 669.4 537.177 668.4 538.777 666.4C540.377 664.4 541.177 661.767 541.177 658.5C541.177 655.233 540.31 652.633 538.577 650.7C536.91 648.767 534.477 647.8 531.277 647.8H518.677V669.4H531.477ZM595.188 654H608.588V704H595.288V701.2C590.488 703.867 586.322 705.2 582.788 705.2C575.855 705.2 571.188 703.3 568.788 699.5C566.388 695.633 565.188 689.2 565.188 680.2V654H578.588V680.4C578.588 685.333 578.988 688.7 579.788 690.5C580.588 692.3 582.522 693.2 585.588 693.2C588.522 693.2 591.288 692.733 593.888 691.8L595.188 691.4V654ZM620.962 704V654H634.262V659.3C639.862 655.967 645.195 653.8 650.262 652.8V666.3C644.862 667.433 640.228 668.6 636.362 669.8L634.362 670.5V704H620.962ZM696.469 669.6V690.4C696.602 692 696.869 693.133 697.269 693.8C697.669 694.4 698.502 694.833 699.769 695.1L699.369 705.2C695.969 705.2 693.235 704.967 691.169 704.5C689.169 704.033 687.135 703.1 685.069 701.7C680.269 704.033 675.369 705.2 670.369 705.2C660.035 705.2 654.869 699.733 654.869 688.8C654.869 683.467 656.302 679.7 659.169 677.5C662.035 675.233 666.435 673.9 672.369 673.5L683.069 672.7V669.6C683.069 667.533 682.602 666.133 681.669 665.4C680.735 664.6 679.235 664.2 677.169 664.2L658.369 665L657.969 655.7C665.102 653.767 671.869 652.8 678.269 652.8C684.735 652.8 689.369 654.133 692.169 656.8C695.035 659.467 696.469 663.733 696.469 669.6ZM673.969 682.8C670.235 683.133 668.369 685.133 668.369 688.8C668.369 692.467 670.002 694.3 673.269 694.3C675.802 694.3 678.569 693.9 681.569 693.1L683.069 692.7V682L673.969 682.8ZM709.843 704V634H723.243V704H709.843ZM732.796 704V695.7H739.996V704H732.796ZM755.239 678.4C756.972 678.4 759.189 678.667 761.889 679.2L763.239 679.5L763.039 684.8C760.406 684.533 758.456 684.4 757.189 684.4C754.889 684.4 753.356 684.9 752.589 685.9C751.856 686.867 751.489 688.717 751.489 691.45C751.489 694.183 751.856 696.067 752.589 697.1C753.356 698.1 754.906 698.6 757.239 698.6L763.039 698.2L763.239 703.55C759.672 704.25 756.956 704.6 755.089 704.6C751.389 704.6 748.722 703.567 747.089 701.5C745.489 699.4 744.689 696.05 744.689 691.45C744.689 686.85 745.522 683.533 747.189 681.5C748.856 679.433 751.539 678.4 755.239 678.4ZM769.358 681.85C771.125 679.55 774.075 678.4 778.208 678.4C782.342 678.4 785.292 679.55 787.058 681.85C788.825 684.117 789.708 687.317 789.708 691.45C789.708 700.217 785.875 704.6 778.208 704.6C770.542 704.6 766.708 700.217 766.708 691.45C766.708 687.317 767.592 684.117 769.358 681.85ZM774.508 697.1C775.208 698.3 776.442 698.9 778.208 698.9C779.975 698.9 781.192 698.3 781.858 697.1C782.558 695.9 782.908 694.017 782.908 691.45C782.908 688.883 782.558 687.017 781.858 685.85C781.192 684.683 779.975 684.1 778.208 684.1C776.442 684.1 775.208 684.683 774.508 685.85C773.842 687.017 773.508 688.883 773.508 691.45C773.508 694.017 773.842 695.9 774.508 697.1ZM801.32 704H794.62V679H801.27V680.4C803.57 679.067 805.536 678.4 807.17 678.4C809.87 678.4 811.953 679.183 813.42 680.75C816.486 679.183 819.286 678.4 821.82 678.4C825.12 678.4 827.403 679.367 828.67 681.3C829.97 683.2 830.62 686.25 830.62 690.45V704H823.92V690.65C823.92 688.517 823.686 686.95 823.22 685.95C822.753 684.917 821.82 684.4 820.42 684.4C819.353 684.4 818.053 684.633 816.52 685.1L815.77 685.35C815.903 687.85 815.97 689.75 815.97 691.05V704H809.27V691.15C809.27 688.683 809.053 686.95 808.62 685.95C808.186 684.917 807.236 684.4 805.77 684.4C804.47 684.4 803.186 684.633 801.92 685.1L801.32 685.3V704Z" fill="#EB5757"/>
<path d="M261.7 617L277 549H303.2L318.5 617H304.7L302 604.7H278.2L275.5 617H261.7ZM287.7 560.4L280.8 592.7H299.4L292.5 560.4H287.7ZM326.956 617V547H340.356V617H326.956ZM371.009 618.2C364.009 618.2 358.909 616.3 355.709 612.5C352.509 608.633 350.909 601.767 350.909 591.9C350.909 581.967 352.743 575.133 356.409 571.4C360.143 567.667 366.576 565.8 375.709 565.8C379.776 565.8 385.076 566.133 391.609 566.8L395.209 567.1V638H381.809V615.5C377.543 617.3 373.943 618.2 371.009 618.2ZM375.709 577.4C371.243 577.4 368.209 578.567 366.609 580.9C365.076 583.167 364.309 587.1 364.309 592.7C364.309 601.7 367.143 606.2 372.809 606.2C375.476 606.2 378.043 605.867 380.509 605.2L381.809 604.9V577.8C379.343 577.533 377.309 577.4 375.709 577.4ZM437.106 567H450.506V617H437.206V614.2C432.406 616.867 428.24 618.2 424.706 618.2C417.773 618.2 413.106 616.3 410.706 612.5C408.306 608.633 407.106 602.2 407.106 593.2V567H420.506V593.4C420.506 598.333 420.906 601.7 421.706 603.5C422.506 605.3 424.44 606.2 427.506 606.2C430.44 606.2 433.206 605.733 435.806 604.8L437.106 604.4V567ZM462.88 617V567H476.28V617H462.88ZM462.88 560.6V547H476.28V560.6H462.88ZM489.261 617V547H502.661V617H489.261ZM553.914 582.6V603.4C554.047 605 554.314 606.133 554.714 606.8C555.114 607.4 555.947 607.833 557.214 608.1L556.814 618.2C553.414 618.2 550.681 617.967 548.614 617.5C546.614 617.033 544.581 616.1 542.514 614.7C537.714 617.033 532.814 618.2 527.814 618.2C517.481 618.2 512.314 612.733 512.314 601.8C512.314 596.467 513.747 592.7 516.614 590.5C519.481 588.233 523.881 586.9 529.814 586.5L540.514 585.7V582.6C540.514 580.533 540.047 579.133 539.114 578.4C538.181 577.6 536.681 577.2 534.614 577.2L515.814 578L515.414 568.7C522.547 566.767 529.314 565.8 535.714 565.8C542.181 565.8 546.814 567.133 549.614 569.8C552.481 572.467 553.914 576.733 553.914 582.6ZM531.414 595.8C527.681 596.133 525.814 598.133 525.814 601.8C525.814 605.467 527.447 607.3 530.714 607.3C533.247 607.3 536.014 606.9 539.014 606.1L540.514 605.7V595L531.414 595.8ZM554.855 561.2V549H604.855V561.2H586.855V617H573.055V561.2H554.855ZM636.52 567H649.92V617H636.62V614.2C631.82 616.867 627.654 618.2 624.12 618.2C617.187 618.2 612.52 616.3 610.12 612.5C607.72 608.633 606.52 602.2 606.52 593.2V567H619.92V593.4C619.92 598.333 620.32 601.7 621.12 603.5C621.92 605.3 623.854 606.2 626.92 606.2C629.854 606.2 632.62 605.733 635.22 604.8L636.52 604.4V567Z" fill="#F2994A"/>
</svg>
